<svg width="39" height="48" viewBox="0 0 39 48" fill="none" xmlns="http://www.w3.org/2000/svg">
<g opacity="0.5">
<path opacity="0.5" d="M19.4286 38.2818C20.9066 38.2818 22.1048 37.0897 22.1048 35.6192C22.1048 34.1486 20.9066 32.9565 19.4286 32.9565C17.9506 32.9565 16.7524 34.1486 16.7524 35.6192C16.7524 37.0897 17.9506 38.2818 19.4286 38.2818Z" fill="#F59DB6"/>
</g>
<path fill-rule="evenodd" clip-rule="evenodd" d="M31.76 44.808L27.221 42.6935C26.8536 42.5108 26.4076 42.6935 26.2502 43.059L24.125 47.575C23.8364 48.1754 22.9968 48.1232 22.7607 47.5228L18.1429 34.9406C18.0117 34.549 18.1954 34.1314 18.589 34.0008L27.221 30.8683C27.6145 30.7378 28.0343 30.9205 28.1655 31.3121L32.7832 43.8943C32.9931 44.4947 32.3634 45.069 31.76 44.808Z" fill="#EAC9F8"/>
<path d="M23.4691 47.0008C23.4691 47.0008 23.4428 47.0008 23.4691 47.0008C23.3379 47.0008 23.2329 46.9225 23.2067 46.8181L18.7726 34.7057L18.7989 34.6274C18.8251 34.6013 18.8513 34.5491 18.8776 34.5491L27.3522 31.4688C27.4309 31.4427 27.5358 31.4688 27.5621 31.5732L31.9699 43.6333C32.0224 43.7378 31.9699 43.8683 31.8912 43.9466C31.8125 44.0249 31.6813 44.051 31.5763 43.9988L27.4833 42.0932C27.2735 41.9888 27.0373 41.9627 26.8274 41.9627C26.3027 41.9888 25.8566 42.3281 25.6205 42.8241L23.7314 46.8181C23.679 46.9486 23.574 47.0008 23.4691 47.0008ZM19.0612 34.784L23.4428 46.7136C23.4428 46.7136 23.4428 46.7397 23.4691 46.7397C23.4953 46.7397 23.4953 46.7397 23.4953 46.7136L25.3844 42.7197C25.673 42.1193 26.224 41.7277 26.8274 41.7016C27.116 41.6755 27.3784 41.7277 27.6145 41.8582L31.7075 43.7639H31.7338V43.7378L27.3522 31.782L19.0612 34.784Z" fill="white"/>
<path fill-rule="evenodd" clip-rule="evenodd" d="M7.09715 44.808L11.6362 42.6935C12.0035 42.5108 12.4495 42.6935 12.6069 43.059L14.7321 47.575C15.0208 48.1754 15.8603 48.1232 16.0965 47.5228L20.7142 34.9145C20.8454 34.5229 20.6617 34.1052 20.2682 33.9747L11.6362 30.8422C11.2426 30.7117 10.8228 30.8944 10.6916 31.286L6.0739 43.8682C5.86401 44.4947 6.4937 45.069 7.09715 44.808Z" fill="#EAC9F8"/>
<path d="M15.388 47.0007C15.2831 47.0007 15.1781 46.9485 15.1257 46.8441L13.2366 42.8502C13.0005 42.3542 12.5282 42.0148 12.0297 41.9887C11.7936 41.9887 11.5837 42.0148 11.3738 42.1192L7.28077 44.0248C7.17582 44.077 7.04463 44.0509 6.96592 43.9726C6.88721 43.8943 6.86097 43.7638 6.88721 43.6594L11.3213 31.547L11.3738 31.5209C11.4 31.4948 11.4525 31.4948 11.5049 31.5209L20.032 34.6273L20.0582 34.6795C20.0845 34.7056 20.0845 34.7578 20.0582 34.8101L15.6504 46.8702C15.6242 46.9224 15.5192 47.0007 15.388 47.0007C15.388 47.0007 15.4143 47.0007 15.388 47.0007ZM13.499 42.7196L15.388 46.7136C15.388 46.7136 15.388 46.7397 15.4143 46.7397C15.4405 46.7397 15.4405 46.7136 15.4405 46.7136L19.8221 34.7578L11.5312 31.7559L7.14958 43.7116V43.7377C7.17582 43.7377 7.17582 43.7377 7.17582 43.7377L11.2688 41.8321C11.5049 41.7277 11.7935 41.6755 12.0559 41.6755C12.6594 41.7538 13.2104 42.1192 13.499 42.7196Z" fill="white"/>
<g opacity="0.5">
<path opacity="0.5" d="M19.4286 35.9587C20.1676 35.9587 20.7667 35.3626 20.7667 34.6273C20.7667 33.8921 20.1676 33.296 19.4286 33.296C18.6896 33.296 18.0905 33.8921 18.0905 34.6273C18.0905 35.3626 18.6896 35.9587 19.4286 35.9587Z" fill="#F59DB6"/>
</g>
<path fill-rule="evenodd" clip-rule="evenodd" d="M21.7112 1.00507L22.9444 1.70988C23.6528 2.12755 24.4399 2.33638 25.227 2.33638H26.6438C28.2705 2.33638 29.7922 3.19782 30.6056 4.60745L31.314 5.83435C31.7075 6.51306 32.2848 7.08735 32.9932 7.50502L34.2263 8.20983C35.6431 9.01906 36.5089 10.507 36.5089 12.1516V13.5612C36.5089 14.3704 36.7188 15.1536 37.1124 15.8323L37.8208 17.0592C38.6341 18.4688 38.6341 20.1917 37.8208 21.6013L37.1124 22.8282C36.7188 23.5069 36.5089 24.29 36.5089 25.0993V26.5089C36.5089 28.1274 35.6431 29.6414 34.2263 30.4506L32.9932 31.1554C32.311 31.547 31.7338 32.1213 31.314 32.8261L30.6056 34.053C29.7922 35.4626 28.2967 36.3241 26.6438 36.3241H25.227C24.4136 36.3241 23.6265 36.5329 22.9444 36.9245L21.7112 37.6293C20.2944 38.4385 18.5628 38.4385 17.146 37.6293L15.9128 36.9245C15.2306 36.5329 14.4435 36.3241 13.6302 36.3241H12.2134C10.5867 36.3241 9.06493 35.4626 8.25158 34.053L7.54317 32.8261C7.14962 32.1474 6.5724 31.5731 5.864 31.1554L4.63086 30.4506C3.21405 29.6414 2.34823 28.1535 2.34823 26.5089V25.0993C2.34823 24.29 2.13833 23.5069 1.74478 22.8282L1.03637 21.6013C0.223024 20.1917 0.223024 18.4688 1.03637 17.0592L1.74478 15.8323C2.13833 15.1536 2.34823 14.3704 2.34823 13.5612V12.1516C2.34823 10.5331 3.21405 9.01906 4.63086 8.20983L5.864 7.50502C6.54616 7.11345 7.12338 6.53916 7.54317 5.83435L8.25158 4.60745C9.06493 3.19782 10.5604 2.33638 12.2134 2.33638H13.6302C14.4435 2.33638 15.2306 2.12755 15.9128 1.73598L17.146 1.03117C18.5628 0.195835 20.2944 0.195835 21.7112 1.00507Z" fill="white"/>
<path d="M19.4286 38.6734C18.5627 38.6734 17.6969 38.4646 16.936 38.0208L15.7029 37.316C15.0732 36.9505 14.3648 36.7678 13.6302 36.7678H12.2134C10.4292 36.7678 8.77631 35.828 7.88425 34.2879L7.17585 33.061C6.80853 32.4345 6.28379 31.9124 5.6541 31.547L4.42095 30.8421C2.87296 29.9546 1.92843 28.31 1.92843 26.5349V25.1253C1.92843 24.3944 1.74477 23.6896 1.37745 23.0631L0.669046 21.8362C-0.223015 20.296 -0.223015 18.3904 0.669046 16.8764L1.37745 15.6495C1.74477 15.023 1.92843 14.3182 1.92843 13.5872V12.1776C1.92843 10.4025 2.87296 8.75797 4.42095 7.87042L5.6541 7.16561C6.28379 6.77405 6.80853 6.25196 7.17585 5.62546L7.88425 4.39856C8.77631 2.85841 10.4292 1.91866 12.2134 1.91866H13.6302C14.3648 1.91866 15.0732 1.73593 15.7029 1.37047L16.936 0.665658C18.484 -0.221886 20.3993 -0.221886 21.9211 0.665658L23.1542 1.37047C23.7839 1.73593 24.4923 1.91866 25.227 1.91866H26.6438C28.4279 1.91866 30.0808 2.85841 30.9729 4.39856L31.6813 5.62546C32.0486 6.25196 32.5734 6.77405 33.203 7.13951L34.4362 7.84432C35.9842 8.73186 36.9287 10.3764 36.9287 12.1515V13.5611C36.9287 14.2921 37.1124 14.9969 37.4797 15.6234L38.1881 16.8503C39.0802 18.3904 39.0802 20.296 38.1881 21.8101L37.4797 23.037C37.1124 23.6635 36.9287 24.3683 36.9287 25.0992V26.5088C36.9287 28.2839 35.9842 29.9285 34.4362 30.816L33.203 31.5209C32.5734 31.8863 32.0486 32.4084 31.6813 33.0349L30.9729 34.2618C30.0808 35.8019 28.4279 36.7417 26.6438 36.7417H25.227C24.4923 36.7417 23.7839 36.9244 23.1542 37.2899L21.9211 37.9947C21.1602 38.4646 20.2944 38.6734 19.4286 38.6734ZM12.2134 2.754C10.7441 2.754 9.37976 3.53712 8.61889 4.81623L7.91049 6.04313C7.46446 6.80015 6.83476 7.42665 6.07389 7.87042L4.84075 8.57524C3.55513 9.30616 2.76801 10.6636 2.76801 12.1515V13.5611C2.76801 14.4226 2.53188 15.284 2.11209 16.041L1.40368 17.2679C0.669046 18.5471 0.669046 20.1133 1.40368 21.3924L2.11209 22.6193C2.55812 23.3763 2.76801 24.2378 2.76801 25.0992V26.5088C2.76801 27.9707 3.55513 29.3281 4.84075 30.0851L6.07389 30.7899C6.83476 31.2337 7.46446 31.8602 7.91049 32.6172L8.61889 33.8441C9.35353 35.1232 10.7179 35.9064 12.2134 35.9064H13.6302C14.496 35.9064 15.3618 36.1413 16.1227 36.559L17.3558 37.2638C18.6415 37.9947 20.2157 37.9947 21.5013 37.2638L22.7344 36.559C23.4953 36.1152 24.3611 35.9064 25.227 35.9064H26.6438C28.1131 35.9064 29.4774 35.1232 30.2383 33.8441L30.9467 32.6172C31.3927 31.8602 32.0224 31.2337 32.7833 30.7899L34.0164 30.0851C35.302 29.3542 36.0891 27.9968 36.0891 26.5088V25.0992C36.0891 24.2378 36.3253 23.3763 36.7451 22.6193L37.4535 21.3924C38.1881 20.1133 38.1881 18.5471 37.4535 17.2679L36.7451 16.041C36.299 15.284 36.0891 14.4226 36.0891 13.5611V12.1515C36.0891 10.6897 35.302 9.33226 34.0164 8.57524L32.7833 7.87042C32.0224 7.42665 31.3927 6.80015 30.9467 6.04313L30.2383 4.81623C29.5036 3.53712 28.1393 2.754 26.6438 2.754H25.227C24.3611 2.754 23.4953 2.51906 22.7344 2.10139L21.5013 1.39658C20.2157 0.665658 18.6415 0.665658 17.3558 1.39658L16.1227 2.10139C15.3618 2.54516 14.496 2.754 13.6302 2.754H12.2134Z" fill="#5E58A5"/>
<path d="M11.7673 16.9809C11.5836 16.6416 11.3475 16.3544 11.0064 16.1978C10.6916 16.0151 10.298 15.9368 9.852 15.9368H8.12035C7.72679 15.9368 7.41195 16.25 7.41195 16.6416V17.0331V23.4287C7.41195 23.507 7.43819 23.5592 7.46442 23.6114C7.49066 23.6636 7.54313 23.6897 7.62185 23.6897H8.09411C8.14659 23.6897 8.19906 23.6636 8.25154 23.6114C8.27777 23.5592 8.30401 23.507 8.30401 23.4287V20.8705C8.30401 20.7399 8.40896 20.6616 8.51391 20.6616H9.87824C10.3243 20.6616 10.6916 20.5833 11.0327 20.4006C11.3738 20.2179 11.6099 19.9568 11.7935 19.6175C11.9772 19.2781 12.0559 18.8343 12.0559 18.3123C12.0297 17.7902 11.9247 17.3464 11.7673 16.9809ZM10.7965 19.3564C10.5866 19.5914 10.2456 19.7219 9.79953 19.7219H8.48767C8.35649 19.7219 8.25154 19.6175 8.25154 19.4869V17.0593C8.25154 16.9287 8.35649 16.8243 8.48767 16.8243H9.79953C10.2456 16.8243 10.5866 16.9548 10.7965 17.1898C11.0064 17.4508 11.1114 17.7902 11.1114 18.26C11.1376 18.7821 11.0327 19.1215 10.7965 19.3564Z" fill="#5E58A5"/>
<path d="M8.0679 23.6897H7.59563C7.51692 23.6897 7.46445 23.6636 7.43821 23.6114C7.41197 23.5592 7.38573 23.507 7.38573 23.4287V16.6416C7.38573 16.25 7.70058 15.9106 8.12037 15.9106H9.87826C10.3243 15.9106 10.7178 15.989 11.0327 16.1717C11.3475 16.3544 11.6099 16.6155 11.7936 16.9809C11.9772 17.3203 12.0559 17.764 12.0559 18.2861C12.0559 18.8082 11.9772 19.252 11.7936 19.5913C11.6099 19.9307 11.3475 20.2178 11.0327 20.3745C10.7178 20.5572 10.3243 20.6355 9.87826 20.6355H8.51393C8.40898 20.6355 8.30403 20.7138 8.30403 20.8443V23.4026C8.30403 23.4809 8.2778 23.5331 8.25156 23.5853C8.19908 23.6636 8.14661 23.6897 8.0679 23.6897ZM8.12037 15.9629C7.72682 15.9629 7.41197 16.2761 7.41197 16.6677V23.4548C7.41197 23.5331 7.43821 23.5853 7.46445 23.6375C7.49068 23.6897 7.54316 23.7158 7.59563 23.7158H8.0679C8.12037 23.7158 8.17285 23.6897 8.22532 23.6375C8.25156 23.5853 8.2778 23.5331 8.2778 23.4548V20.8704C8.2778 20.7399 8.38274 20.6355 8.51393 20.6355H9.87826C10.3243 20.6355 10.6916 20.5572 11.0065 20.3745C11.3213 20.1917 11.5837 19.9307 11.7411 19.5913C11.9248 19.252 12.0035 18.8082 12.0035 18.2861C12.0035 17.764 11.9248 17.3203 11.7411 16.9809C11.5574 16.6416 11.3213 16.3805 11.0065 16.1978C10.6916 16.0151 10.2981 15.9367 9.87826 15.9367H8.12037V15.9629ZM9.82578 19.748H8.51393C8.38274 19.748 8.2778 19.6435 8.2778 19.513V17.0853C8.2778 16.9548 8.38274 16.8504 8.51393 16.8504H9.82578C10.2718 16.8504 10.6129 16.9809 10.8228 17.242C11.0327 17.503 11.1376 17.8424 11.1376 18.3122C11.1376 18.7821 11.0327 19.1476 10.7966 19.3825C10.5867 19.6174 10.2456 19.748 9.82578 19.748ZM8.51393 16.8765C8.40898 16.8765 8.30403 16.9809 8.30403 17.0853V19.513C8.30403 19.6174 8.40898 19.7219 8.51393 19.7219H9.82578C10.2456 19.7219 10.5867 19.5913 10.7966 19.3564C11.0065 19.1215 11.1114 18.756 11.1114 18.3122C11.1114 17.8685 11.0065 17.503 10.7966 17.2681C10.5867 17.0331 10.2456 16.9026 9.79955 16.9026H8.51393V16.8765Z" fill="#5E58A5"/>
<path d="M20.2419 23.6897C20.1894 23.6897 20.1632 23.6636 20.1107 23.6114C20.0845 23.5592 20.0582 23.507 20.0582 23.4548C20.0582 23.4287 20.0582 23.3765 20.0582 23.3242L22.2621 16.1717C22.2884 16.0934 22.3146 16.0412 22.3671 15.989C22.4196 15.9367 22.472 15.9106 22.5508 15.9106H23.1542C23.2329 15.9106 23.3116 15.9367 23.3379 15.989C23.3903 16.0412 23.4166 16.0934 23.4428 16.1717L25.6467 23.3242C25.6467 23.3765 25.673 23.4026 25.673 23.4548C25.673 23.507 25.6467 23.5592 25.6205 23.6114C25.5943 23.6636 25.5418 23.6897 25.4893 23.6897H25.0433C24.9646 23.6897 24.9121 23.6636 24.8859 23.6114C24.8596 23.5592 24.8334 23.5331 24.8071 23.4809L24.3873 22.0973C24.3349 21.9929 24.2562 21.9146 24.125 21.9146H21.58C21.475 21.9146 21.3701 21.9929 21.3438 22.0973L20.8978 23.507C20.8978 23.5331 20.8716 23.5853 20.8453 23.6375C20.8191 23.6897 20.7666 23.7158 20.6879 23.7158H20.2419V23.6897ZM21.7899 20.9749H23.9151C23.9938 20.9749 24.02 20.8966 24.02 20.8443L22.9443 17.3725C22.9181 17.2681 22.7869 17.2681 22.7606 17.3725L21.6849 20.8443C21.6849 20.8966 21.7374 20.9749 21.7899 20.9749Z" fill="#5E58A5"/>
<path d="M25.4893 23.6897H25.0433C24.9645 23.6897 24.9121 23.6636 24.8858 23.6114C24.8596 23.5592 24.8334 23.5331 24.8071 23.4809L24.3611 22.0712C24.3349 21.9668 24.2299 21.9146 24.125 21.9146H21.58C21.475 21.9146 21.3963 21.9929 21.3438 22.0712L20.8978 23.4809C20.8978 23.507 20.8716 23.5592 20.8453 23.6114C20.8191 23.6636 20.7404 23.6897 20.6617 23.6897H20.2156C20.1632 23.6897 20.1107 23.6636 20.0844 23.6114C20.0582 23.5592 20.032 23.507 20.032 23.4548C20.032 23.4287 20.032 23.3765 20.032 23.3242L22.2621 16.1717C22.2884 16.0934 22.3146 16.0412 22.3671 15.989C22.4196 15.9367 22.472 15.9106 22.577 15.9106H23.1804C23.2591 15.9106 23.3378 15.9367 23.3903 15.989C23.4428 16.0412 23.469 16.0934 23.4953 16.1717L25.6992 23.3242C25.6992 23.3765 25.7254 23.4026 25.7254 23.4548C25.7254 23.507 25.6992 23.5853 25.673 23.6114C25.5942 23.6636 25.5418 23.6897 25.4893 23.6897ZM21.58 21.9146H24.125C24.2299 21.9146 24.3349 21.9929 24.3873 22.0973L24.8334 23.507C24.8334 23.5331 24.8596 23.5853 24.8858 23.6114C24.9121 23.6636 24.9645 23.6636 25.017 23.6636H25.4631C25.5155 23.6636 25.5418 23.6375 25.568 23.6114C25.5942 23.5592 25.6205 23.5331 25.6205 23.4548C25.6205 23.4287 25.6205 23.3765 25.5942 23.3242L23.4428 16.1717C23.4166 16.0934 23.3903 16.0412 23.3378 15.989C23.3116 15.9367 23.2329 15.9367 23.1542 15.9367H22.5507C22.472 15.9367 22.4196 15.9629 22.3671 15.989C22.3146 16.0412 22.2884 16.0934 22.2621 16.1717L20.0582 23.3242C20.0582 23.3765 20.0582 23.4026 20.0582 23.4287C20.0582 23.4809 20.0844 23.5331 20.1107 23.5853C20.1369 23.6375 20.1894 23.6375 20.2156 23.6375H20.6617C20.7404 23.6375 20.7666 23.6114 20.8191 23.5853C20.8453 23.5331 20.8716 23.507 20.8716 23.4809L21.3176 22.0712C21.3701 21.9929 21.475 21.9146 21.58 21.9146ZM23.9151 20.9749H21.7899C21.7636 20.9749 21.7111 20.9488 21.6849 20.9227C21.6587 20.8966 21.6587 20.8443 21.6587 20.8182L22.7344 17.3464C22.7606 17.2942 22.7869 17.2681 22.8393 17.2681C22.8918 17.2681 22.9443 17.2942 22.9443 17.3464L24.02 20.8182C24.02 20.8443 24.02 20.8966 23.9938 20.9227C23.9675 20.9488 23.9675 20.9749 23.9151 20.9749ZM22.8656 17.2942C22.8393 17.2942 22.7869 17.3203 22.7869 17.3464L21.7111 20.8182C21.7111 20.8443 21.7111 20.8704 21.7374 20.8966C21.7636 20.9227 21.7899 20.9227 21.8161 20.9227H23.9413C23.9675 20.9227 23.9938 20.9227 24.02 20.8966C24.0462 20.8704 24.0462 20.8443 24.0462 20.8182L22.9705 17.3464C22.9181 17.3203 22.8918 17.2942 22.8656 17.2942Z" fill="#5E58A5"/>
<path d="M15.703 23.4286L13.7614 20.1395C13.5777 19.8262 13.5777 19.4347 13.7614 19.1475L15.6767 16.0672C15.8604 15.754 16.3326 15.754 16.5163 16.0672L18.4316 19.1736C18.6153 19.4869 18.6153 19.8523 18.4579 20.1656L16.5688 23.4547C16.3851 23.7419 15.9129 23.7419 15.703 23.4286Z" fill="#5E58A5"/>
<path d="M16.149 23.6896C15.9653 23.6896 15.8079 23.5852 15.7029 23.4286L13.7614 20.1395C13.5777 19.8262 13.5777 19.4346 13.7614 19.1214L15.6767 16.0411C15.7817 15.8845 15.9391 15.8062 16.1227 15.8062C16.3064 15.8062 16.4638 15.8845 16.5688 16.0411L18.4841 19.1475C18.6677 19.4607 18.6677 19.8262 18.5103 20.1395L16.6212 23.4286C16.4901 23.5852 16.3326 23.6896 16.149 23.6896ZM15.7292 23.4025C15.8079 23.5591 15.9653 23.6374 16.149 23.6374C16.3326 23.6374 16.4901 23.533 16.5688 23.4025L18.4578 20.1134C18.6415 19.8001 18.6153 19.4346 18.4316 19.1475L16.5163 16.0411C16.4376 15.8845 16.2802 15.8062 16.0965 15.8062C15.9128 15.8062 15.7817 15.8845 15.6767 16.0411L13.7614 19.1214C13.5777 19.4346 13.5777 19.8001 13.7614 20.1134L15.7292 23.4025Z" fill="#5E58A5"/>
<path d="M15.9915 22.1233L14.6009 19.7478C14.5747 19.6956 14.5747 19.6434 14.6009 19.5912L15.9915 17.3463C16.044 17.2418 16.2014 17.2418 16.2539 17.3463L17.6444 19.5912C17.6707 19.6434 17.6707 19.6956 17.6444 19.7478L16.2801 22.1233C16.2014 22.2277 16.0702 22.2277 15.9915 22.1233Z" fill="white"/>
<path d="M31.8649 16.9809C31.6813 16.6416 31.4451 16.3544 31.104 16.1978C30.7892 16.0151 30.3956 15.9368 29.9496 15.9368H28.1917C27.7982 15.9368 27.4833 16.25 27.4833 16.6416V17.0331V23.4287C27.4833 23.507 27.5096 23.5592 27.5358 23.6114C27.562 23.6636 27.6145 23.6897 27.6932 23.6897H28.1655C28.218 23.6897 28.2704 23.6636 28.3229 23.6114C28.3492 23.5592 28.3754 23.507 28.3754 23.4287V20.8705C28.3754 20.7399 28.4803 20.6616 28.5853 20.6616H29.9496C30.3956 20.6616 30.763 20.5833 31.104 20.4006C31.4189 20.2179 31.6813 19.9568 31.8649 19.6175C32.0486 19.2781 32.1273 18.8343 32.1273 18.3123C32.1273 17.7902 32.0486 17.3464 31.8649 16.9809ZM30.9204 19.3564C30.7105 19.5914 30.3694 19.7219 29.9234 19.7219H28.6115C28.4803 19.7219 28.3754 19.6175 28.3754 19.4869V17.0593C28.3754 16.9287 28.4803 16.8243 28.6115 16.8243H29.9234C30.3694 16.8243 30.7105 16.9548 30.9204 17.1898C31.1303 17.4508 31.2352 17.7902 31.2352 18.26C31.2352 18.7821 31.1303 19.1215 30.9204 19.3564Z" fill="#5E58A5"/>
<path d="M28.1917 23.6897H27.7194C27.6407 23.6897 27.5882 23.6636 27.562 23.6114C27.5358 23.5592 27.5095 23.507 27.5095 23.4287V16.6416C27.5095 16.25 27.8244 15.9106 28.2442 15.9106H30.0021C30.4481 15.9106 30.8416 15.989 31.1565 16.1717C31.4713 16.3544 31.7337 16.6155 31.9174 16.9809C32.101 17.3203 32.1797 17.764 32.1797 18.2861C32.1797 18.8082 32.101 19.252 31.9174 19.5913C31.7337 19.9307 31.4713 20.2178 31.1565 20.3745C30.8416 20.5572 30.4481 20.6355 30.0021 20.6355H28.6377C28.5328 20.6355 28.4278 20.7138 28.4278 20.8443V23.4026C28.4278 23.4809 28.4016 23.5331 28.3754 23.5853C28.2966 23.6636 28.2442 23.6897 28.1917 23.6897ZM28.2179 15.9629C27.8244 15.9629 27.5095 16.2761 27.5095 16.6677V23.4548C27.5095 23.5331 27.5358 23.5853 27.562 23.6375C27.5882 23.6897 27.6407 23.7158 27.6932 23.7158H28.1655C28.2179 23.7158 28.2704 23.6897 28.3229 23.6375C28.3491 23.5853 28.3754 23.5331 28.3754 23.4548V20.8704C28.3754 20.7399 28.4803 20.6355 28.6115 20.6355H29.9758C30.4219 20.6355 30.7892 20.5572 31.104 20.3745C31.4189 20.1917 31.6812 19.9307 31.8387 19.5913C32.0223 19.252 32.101 18.8082 32.101 18.2861C32.101 17.764 32.0223 17.3203 31.8387 16.9809C31.655 16.6416 31.4189 16.3805 31.104 16.1978C30.7892 16.0151 30.3956 15.9367 29.9758 15.9367H28.2179V15.9629ZM29.9233 19.748H28.6115C28.4803 19.748 28.3754 19.6435 28.3754 19.513V17.0853C28.3754 16.9548 28.4803 16.8504 28.6115 16.8504H29.9233C30.3694 16.8504 30.7105 16.9809 30.9204 17.242C31.1303 17.503 31.2352 17.8424 31.2352 18.3122C31.2352 18.7821 31.1303 19.1476 30.8941 19.3825C30.7105 19.6174 30.3694 19.748 29.9233 19.748ZM28.6115 16.8765C28.5065 16.8765 28.4016 16.9809 28.4016 17.0853V19.513C28.4016 19.6174 28.5065 19.7219 28.6115 19.7219H29.9233C30.3431 19.7219 30.6842 19.5913 30.8941 19.3564C31.104 19.1215 31.209 18.756 31.209 18.3122C31.209 17.8685 31.104 17.503 30.8941 17.2681C30.6842 17.0331 30.3431 16.9026 29.8971 16.9026H28.6115V16.8765Z" fill="#5E58A5"/>
</svg>
